<svg width="263" height="84" viewBox="0 0 263 84" fill="none" xmlns="http://www.w3.org/2000/svg">
<path d="M90.92 60L90.92 34.08H94.952L100.264 46.56V34.08H105L105 60L101.128 60L95.816 46.56L95.816 60H90.92ZM108.89 60L108.89 34.08H114.618L114.618 60H108.89ZM118.483 60L118.483 34.08H124.211V44.672L128.563 34.08L134.163 34.08L129.363 45.792L134.387 60L128.563 60L124.819 48.544L124.211 49.568V60H118.483ZM136.639 60V34.08H148.287V37.984H142.367V44.416H146.879V48.384H142.367V56.128H148.351V60H136.639ZM150.503 60V55.072H155.431V60H150.503Z" fill="white"/>
<path d="M80.9999 33.375L21.7417 56.7375C16.8277 58.6646 12.7012 59.6281 9.36215 59.6281C5.58215 59.6281 2.84053 58.4021 1.13728 55.95C0.0685263 54.375 -0.246474 52.3771 0.192276 49.9562C0.633276 47.5354 1.79878 44.9542 3.68878 42.2125C5.26378 39.9938 7.8479 37.0771 11.4412 33.4625C10.2208 35.239 9.32667 37.1904 8.79515 39.2375C7.85015 42.9708 8.70065 45.7125 11.3467 47.4625C12.6067 48.2792 14.3392 48.6875 16.5442 48.6875C18.3059 48.6875 20.2904 48.425 22.4977 47.9L80.9999 33.375Z" fill="white"/>
</svg>
