<svg width="845" height="272" viewBox="0 0 845 272" fill="none" xmlns="http://www.w3.org/2000/svg">
<path d="M845 0L226.806 242.051C175.542 262.017 132.493 272 97.6602 272C58.2265 272 29.6253 259.297 11.8567 233.892C0.707239 217.574 -2.57891 196.874 1.99822 171.793C6.59883 146.711 18.7576 119.968 38.4744 91.5624C54.9052 68.5747 81.8633 38.3561 119.349 0.906555C106.618 19.3122 97.2901 39.5302 91.7452 60.7394C81.8867 99.4193 90.7593 127.825 118.363 145.956C131.508 154.417 149.581 158.648 172.584 158.648C190.963 158.648 211.666 155.928 234.692 150.489L845 0Z" fill="url(#paint0_linear_76_323)"/>
<defs>
<linearGradient id="paint0_linear_76_323" x1="-487.68" y1="693.6" x2="844.296" y2="-1.34946" gradientUnits="userSpaceOnUse">
<stop stop-color="#D2D2D2" stop-opacity="0"/>
<stop offset="0.649593" stop-color="#7A7A7A"/>
</linearGradient>
</defs>
</svg>
