<svg width="45" height="38" viewBox="0 0 45 38" fill="none" xmlns="http://www.w3.org/2000/svg">
<path d="M12.0622 12.1442V10.6083C12.0622 7.04585 14.9118 3.54668 18.4542 3.21418C22.6736 2.80251 26.2317 6.14335 26.2317 10.3075V12.4925" stroke="#0D0D0D" stroke-width="2" stroke-miterlimit="10" stroke-linecap="round" stroke-linejoin="round"/>
<path d="M14.4238 34.8334H23.8701C30.1991 34.8334 31.3327 32.2842 31.6633 29.1809L32.8441 19.6809C33.2692 15.8175 32.1671 12.6667 25.4445 12.6667H12.8494C6.12674 12.6667 5.02467 15.8175 5.44975 19.6809L6.63055 29.1809C6.96117 32.2842 8.09473 34.8334 14.4238 34.8334Z" stroke="#0D0D0D" stroke-width="2" stroke-miterlimit="10" stroke-linecap="round" stroke-linejoin="round"/>
<path d="M24.6502 19H24.6643" stroke="#0D0D0D" stroke-width="2" stroke-linecap="round" stroke-linejoin="round"/>
<path d="M13.6279 19H13.6421" stroke="#0D0D0D" stroke-width="2" stroke-linecap="round" stroke-linejoin="round"/>
<ellipse cx="37.0452" cy="9" rx="7.9548" ry="8" fill="#FF0000"/>
<path d="M35.4405 12C35.4405 11.76 35.4405 11.528 35.4405 11.304C35.4405 11.072 35.4405 10.836 35.4405 10.596C35.4405 10.172 35.4925 9.84 35.5965 9.6C35.7085 9.352 35.8725 9.148 36.0885 8.988C36.3125 8.828 36.5925 8.664 36.9285 8.496C37.2085 8.36 37.4365 8.22 37.6125 8.076C37.7885 7.932 37.9205 7.756 38.0085 7.548C38.0965 7.332 38.1405 7.068 38.1405 6.756C38.1405 6.412 38.0805 6.152 37.9605 5.976C37.8485 5.792 37.6525 5.7 37.3725 5.7C37.1085 5.7 36.9125 5.8 36.7845 6C36.6645 6.192 36.6045 6.484 36.6045 6.876V7.404H35.4645V6.576C35.4645 6 35.6285 5.572 35.9565 5.292C36.2845 5.012 36.7605 4.872 37.3845 4.872C37.8725 4.872 38.2565 4.94 38.5365 5.076C38.8245 5.212 39.0285 5.424 39.1485 5.712C39.2685 5.992 39.3285 6.356 39.3285 6.804C39.3285 7.356 39.2285 7.808 39.0285 8.16C38.8285 8.512 38.5125 8.808 38.0805 9.048C37.8645 9.152 37.6645 9.256 37.4805 9.36C37.3045 9.464 37.1485 9.584 37.0125 9.72C36.8845 9.856 36.8005 10.028 36.7605 10.236C36.7205 10.364 36.6885 10.496 36.6645 10.632C36.6405 10.76 36.6245 10.9 36.6165 11.052H39.3765V12H35.4405Z" fill="white"/>
</svg>
