<svg width="60" height="60" viewBox="0 0 60 60" fill="none" xmlns="http://www.w3.org/2000/svg">
<circle cx="30" cy="30" r="30" fill="#C1E3FF"/>
<path d="M27.4833 13.7167L19.1667 16.8334C17.25 17.5501 15.6833 19.8167 15.6833 21.8667V34.2501C15.6833 36.2167 16.9834 38.8001 18.5667 39.9834L25.7333 45.3334C28.0833 47.1001 31.95 47.1001 34.3 45.3334L41.4667 39.9834C43.05 38.8001 44.35 36.2167 44.35 34.2501V21.8667C44.35 19.8167 42.7833 17.5501 40.8667 16.8334L32.55 13.7167C31.1333 13.2001 28.8667 13.2001 27.4833 13.7167Z" stroke="#0072CE" stroke-width="2" stroke-linecap="round" stroke-linejoin="round"/>
<path d="M30 35.8333C33.6819 35.8333 36.6667 32.8486 36.6667 29.1667C36.6667 25.4848 33.6819 22.5 30 22.5C26.3181 22.5 23.3333 25.4848 23.3333 29.1667C23.3333 32.8486 26.3181 35.8333 30 35.8333Z" stroke="#0072CE" stroke-width="2" stroke-miterlimit="10" stroke-linecap="round" stroke-linejoin="round"/>
<path d="M30.4167 27.0834V28.6334C30.4167 29.2167 30.1167 29.7667 29.6 30.0667L28.3333 30.8334" stroke="#0072CE" stroke-width="2" stroke-miterlimit="10" stroke-linecap="round" stroke-linejoin="round"/>
</svg>
