<svg width="24" height="24" viewBox="0 0 24 24" fill="none" xmlns="http://www.w3.org/2000/svg">
<path d="M21.42 8.16022C21.42 8.16022 21.24 6.84022 20.64 6.24022C19.92 5.46022 19.08 5.46021 18.72 5.40021C16.02 5.22021 12 5.22021 12 5.22021C12 5.22021 7.98 5.22021 5.28 5.40021C4.92 5.46021 4.08 5.46022 3.36 6.24022C2.76 6.84022 2.58 8.16022 2.58 8.16022C2.58 8.16022 2.4 9.72022 2.4 11.2802L2.4 12.7202C2.4 14.2802 2.58 15.8402 2.58 15.8402C2.58 15.8402 2.76 17.1602 3.36 17.7602C4.08 18.5402 5.04 18.4802 5.46 18.6002C7.02 18.7202 12 18.7802 12 18.7802C12 18.7802 16.02 18.7802 18.72 18.6002C19.08 18.5402 19.92 18.5402 20.64 17.7602C21.24 17.1602 21.42 15.8402 21.42 15.8402C21.42 15.8402 21.6 14.2802 21.6 12.7202L21.6 11.2802C21.6 9.72022 21.42 8.16022 21.42 8.16022ZM10.02 14.5202L10.02 9.12021L15.18 11.8202L10.02 14.5202Z" fill="#E82E2E"/>
</svg>
