<svg width="24" height="24" viewBox="0 0 24 24" fill="none" xmlns="http://www.w3.org/2000/svg">
<path d="M21.6 11.9999C21.5997 10.1653 21.0738 8.36927 20.0845 6.82434C19.0951 5.27942 17.6839 4.05031 16.0177 3.28254C14.3515 2.51476 12.5003 2.24047 10.6831 2.49213C8.86588 2.74379 7.15884 3.51087 5.76404 4.70255C4.36925 5.89423 3.34512 7.46061 2.81288 9.21625C2.28065 10.9719 2.26261 12.8433 2.7609 14.6089C3.25919 16.3744 4.25293 17.9603 5.62449 19.1786C6.99605 20.397 8.68799 21.1968 10.5 21.4835L10.5 14.7749H8.0628V11.9999H10.5V9.88486C10.5 7.47886 11.9334 6.14986 14.1258 6.14986C14.8458 6.15985 15.5641 6.22241 16.275 6.33706V8.69986H15.0642C14.8579 8.67246 14.648 8.69184 14.4502 8.75656C14.2524 8.82128 14.0717 8.92969 13.9214 9.07376C13.7712 9.21782 13.6553 9.39384 13.5824 9.58878C13.5094 9.78371 13.4813 9.99257 13.5 10.1999V11.9999H16.1628L15.7368 14.7749H13.5L13.5 21.4835C15.7583 21.1262 17.8149 19.9747 19.2998 18.2362C20.7847 16.4976 21.6004 14.2862 21.6 11.9999Z" fill="#2E6FE8"/>
</svg>
