<svg width="24" height="24" viewBox="0 0 24 24" fill="none" xmlns="http://www.w3.org/2000/svg">
<path d="M21.6 6.0602C20.88 6.3602 20.16 6.6002 19.32 6.6602C20.16 6.1802 20.76 5.4002 21.06 4.5002C20.28 4.9802 19.44 5.2802 18.54 5.4602C17.82 4.6802 16.8 4.2002 15.72 4.2002C13.56 4.2002 11.76 5.9402 11.76 8.1602C11.76 8.4602 11.82 8.7602 11.88 9.0602C8.58 8.8802 5.7 7.3202 3.72 4.9202C3.36 5.5202 3.18 6.1802 3.18 6.9002C3.18 8.2802 3.9 9.4802 4.92 10.2002C4.26 10.2002 3.66 10.0202 3.12 9.7202V9.7802C3.12 11.7002 4.5 13.2602 6.3 13.6202C5.94 13.6802 5.64 13.7402 5.28 13.7402C5.04 13.7402 4.8 13.7402 4.56 13.6802C5.04 15.2402 6.54 16.3802 8.22 16.4402C6.9 17.5202 5.16 18.1202 3.3 18.1202C3 18.1202 2.64 18.1202 2.34 18.0602C4.14 19.1402 6.24 19.8002 8.46 19.8002C15.72 19.8002 19.68 13.8002 19.68 8.5802C19.68 8.4002 19.68 8.2202 19.68 8.1002C20.4 7.5002 21.06 6.8402 21.6 6.0602Z" fill="#2EBAE8"/>
</svg>
