<svg width="81" height="27" viewBox="0 0 81 27" fill="none" xmlns="http://www.w3.org/2000/svg">
<path d="M80.9999 0.375L21.7417 23.7375C16.8277 25.6646 12.7012 26.6281 9.36215 26.6281C5.58215 26.6281 2.84053 25.4021 1.13728 22.95C0.0685263 21.375 -0.246474 19.3771 0.192276 16.9562C0.633276 14.5354 1.79878 11.9542 3.68878 9.2125C5.26378 6.99375 7.8479 4.07708 11.4412 0.4625C10.2208 2.23899 9.32667 4.19041 8.79515 6.2375C7.85015 9.97083 8.70065 12.7125 11.3467 14.4625C12.6067 15.2792 14.3392 15.6875 16.5442 15.6875C18.3059 15.6875 20.2904 15.425 22.4977 14.9L80.9999 0.375Z" fill="#202020"/>
</svg>
